#N canvas 178 142 724 547 16;
#X floatatom 397 199 5 0 0 0 - - -, f 5;
#X floatatom 491 209 5 0 0 0 - - -, f 5;
#X obj 234 166 sel 0;
#X msg 234 195 0;
#X obj 191 351 line~;
#X obj 191 387 *~;
#X obj 191 416 *~;
#X obj 234 97 inlet;
#X obj 397 96 inlet fadein;
#X obj 529 148 inlet fadeout;
#X obj 310 305 pack f \$1;
#X obj 191 304 pack f \$2;
#X obj 192 458 outlet~;
#X connect 0 0 10 1;
#X connect 1 0 11 1;
#X connect 2 0 3 0;
#X connect 2 1 10 0;
#X connect 3 0 11 0;
#X connect 4 0 5 0;
#X connect 4 0 5 1;
#X connect 5 0 6 0;
#X connect 5 0 6 1;
#X connect 6 0 12 0;
#X connect 7 0 2 0;
#X connect 8 0 0 0;
#X connect 9 0 1 0;
#X connect 10 0 4 0;
#X connect 11 0 4 0;
