#N canvas 458 129 983 657 10;
#X obj 39 602 dac~;
#N canvas 0 22 450 300 (subpatch) 0;
#X array kick 20865 float 2;
#X coords 0 1 20865 -1 300 150 1 0 0;
#X restore 625 34 graph;
#X obj 230 607 s tb303_cf;
#X obj 232 560 hsl 128 15 100 2500 1 0 empty empty empty -2 -8 0 10
-262144 -1 -1 5470 0;
#X floatatom 229 580 5 0 0 0 - - -, f 5;
#X obj 388 561 hsl 128 15 0 4 0 0 empty empty empty -2 -8 0 10 -262144
-1 -1 1587 0;
#X floatatom 385 581 5 0 0 0 - - -, f 5;
#X obj 386 608 s tb303_res;
#N canvas 0 22 450 300 (subpatch) 0;
#X array hat 15554 float 2;
#X coords 0 1 15554 -1 300 150 1 0 0;
#X restore 625 217 graph;
#N canvas 0 22 450 300 (subpatch) 0;
#X array cymbal 61391 float 2;
#X coords 0 1 61391 -1 300 150 1 0 0;
#X restore 625 400 graph;
#N canvas 615 22 1065 417 drum 0;
#X obj 40 209 soundfiler;
#X floatatom 40 237 10 0 0 0 - - -, f 10;
#X obj 395 210 soundfiler;
#X floatatom 395 238 10 0 0 0 - - -, f 10;
#X obj 39 299 t b f;
#X obj 722 214 soundfiler;
#X floatatom 722 242 10 0 0 0 - - -, f 10;
#X obj 40 358 s drums;
#X obj 39 91 r debut;
#X obj 396 57 r debut;
#X obj 722 68 r debut;
#X obj 723 114 delay 0.1 1 min;
#X obj 396 98 delay 0.04 1 min;
#X msg 40 162 read -resize ../Programation_Pure_Data_2/Kick.wav kick
;
#X msg 395 163 read -resize ../Programation_Pure_Data_2/ClHat.wav hat
;
#X msg 722 167 read -resize ../Programation_Pure_Data_2/Cymbal.wav
cymbal;
#X connect 0 0 1 0;
#X connect 1 0 4 0;
#X connect 2 0 3 0;
#X connect 3 0 4 0;
#X connect 4 0 7 0;
#X connect 5 0 6 0;
#X connect 6 0 4 0;
#X connect 8 0 13 0;
#X connect 9 0 12 0;
#X connect 10 0 11 0;
#X connect 11 0 15 0;
#X connect 12 0 14 0;
#X connect 13 0 0 0;
#X connect 14 0 2 0;
#X connect 15 0 5 0;
#X restore 30 163 pd drum array;
#X obj 31 35 tgl 25 0 empty empty empty 17 7 0 10 -262144 -1 -1 1 1
;
#X obj 32 119 s debut;
#X obj 94 119 s fin;
#N canvas 226 278 1182 515 drums 0;
#X obj 249 314 tabplay~ hat;
#X obj 133 313 tabplay~ kick;
#X obj 134 234 counter;
#X obj 136 270 % 8;
#N canvas 616 476 650 397 bpm 0;
#X obj 56 37 inlet;
#X obj 68 144 t b f;
#X msg 74 177 60000;
#X obj 82 207 /;
#X obj 83 247 int;
#X floatatom 82 281 5 0 0 0 - - -, f 5;
#X obj 194 309 *;
#X obj 68 109 int;
#X obj 33 92 bng 15 250 50 0 empty empty empty 17 7 0 10 -262144 -1
-1;
#X obj 197 349 outlet;
#X msg 244 233 1;
#X obj 153 163 t b f;
#X obj 339 157 loadbang;
#X connect 0 0 7 1;
#X connect 0 0 8 0;
#X connect 1 0 2 0;
#X connect 1 1 3 1;
#X connect 2 0 3 0;
#X connect 3 0 4 0;
#X connect 4 0 5 0;
#X connect 5 0 6 0;
#X connect 6 0 9 0;
#X connect 7 0 1 0;
#X connect 8 0 7 0;
#X connect 10 0 6 1;
#X connect 11 0 7 0;
#X connect 11 1 10 0;
#X connect 12 0 11 0;
#X restore 132 164 pd bpm;
#X obj 248 102 nbx 5 14 -1e+37 1e+37 0 0 empty empty empty 0 -8 0 10
-262144 -1 -1 125 256;
#X obj 130 197 metro;
#X obj 134 234 counter;
#X obj 136 270 % 8;
#X obj 130 197 metro;
#X obj 252 234 counter;
#X obj 254 270 % 8;
#X obj 248 197 metro;
#X obj 363 234 counter;
#X obj 365 270 % 8;
#X obj 359 197 metro;
#X obj 356 314 tabplay~ cymbal;
#X obj 135 453 throw~ drum;
#N canvas 616 476 650 397 bpm 0;
#X obj 56 37 inlet;
#X obj 68 144 t b f;
#X msg 74 177 60000;
#X obj 82 207 /;
#X obj 83 247 int;
#X floatatom 82 281 5 0 0 0 - - -, f 5;
#X obj 194 309 *;
#X obj 68 109 int;
#X obj 33 92 bng 15 250 50 0 empty empty empty 17 7 0 10 -262144 -1
-1;
#X obj 197 349 outlet;
#X obj 153 163 t b f;
#X obj 339 157 loadbang;
#X msg 244 233 0.5;
#X connect 0 0 7 1;
#X connect 0 0 8 0;
#X connect 1 0 2 0;
#X connect 1 1 3 1;
#X connect 2 0 3 0;
#X connect 3 0 4 0;
#X connect 4 0 5 0;
#X connect 5 0 6 0;
#X connect 6 0 9 0;
#X connect 7 0 1 0;
#X connect 8 0 7 0;
#X connect 10 0 7 0;
#X connect 10 1 12 0;
#X connect 11 0 10 0;
#X connect 12 0 6 1;
#X restore 248 164 pd bpm;
#N canvas 616 476 650 397 bpm 0;
#X obj 56 37 inlet;
#X obj 68 144 t b f;
#X msg 74 177 60000;
#X obj 82 207 /;
#X obj 83 247 int;
#X floatatom 82 281 5 0 0 0 - - -, f 5;
#X obj 194 309 *;
#X obj 68 109 int;
#X obj 33 92 bng 15 250 50 0 empty empty empty 17 7 0 10 -262144 -1
-1;
#X obj 197 349 outlet;
#X obj 153 163 t b f;
#X obj 339 157 loadbang;
#X msg 244 233 4;
#X connect 0 0 7 1;
#X connect 0 0 8 0;
#X connect 1 0 2 0;
#X connect 1 1 3 1;
#X connect 2 0 3 0;
#X connect 3 0 4 0;
#X connect 4 0 5 0;
#X connect 5 0 6 0;
#X connect 6 0 9 0;
#X connect 7 0 1 0;
#X connect 8 0 7 0;
#X connect 10 0 7 0;
#X connect 10 1 12 0;
#X connect 11 0 10 0;
#X connect 12 0 6 1;
#X restore 360 162 pd bpm;
#X msg 178 47 125;
#X obj 164 23 loadbang;
#X obj 45 42 r drums;
#X obj 351 25 r fin;
#X obj 508 25 r fin;
#X obj 652 22 r fin;
#X obj 488 164 s bpm303;
#X obj 368 82 bng 15 250 50 0 empty empty empty 17 7 0 10 -262144 -1
-1;
#X obj 523 80 bng 15 250 50 0 empty empty empty 17 7 0 10 -262144 -1
-1;
#X obj 665 76 bng 15 250 50 0 empty empty empty 17 7 0 10 -262144 -1
-1;
#X obj 507 54 delay 1.3 1 min;
#X obj 651 51 delay 1.4 1 min;
#X obj 350 54 delay 1.2 1 min;
#X obj 494 243 vsl 15 100 0 1 0 0 empty empty Gain 0 -9 0 10 -262144
-1 -1 7920 1;
#X floatatom 495 354 5 0 0 0 - - -, f 5;
#X msg 495 373 \$1 25;
#X obj 495 395 line~;
#X obj 92 357 *~;
#X obj 552 264 vsl 15 100 0 1 0 0 empty empty Gain 0 -9 0 10 -262144
-1 -1 3960 1;
#X floatatom 553 375 5 0 0 0 - - -, f 5;
#X msg 553 394 \$1 25;
#X obj 553 416 line~;
#X obj 126 378 *~;
#X msg 577 304 0.4;
#X obj 610 290 vsl 15 100 0 1 0 0 empty empty Gain 0 -9 0 10 -262144
-1 -1 2970 1;
#X floatatom 611 401 5 0 0 0 - - -, f 5;
#X msg 611 420 \$1 25;
#X obj 611 442 line~;
#X obj 160 402 *~;
#X msg 635 330 0.3;
#X obj 678 249 loadbang;
#X obj 804 21 r debut;
#X obj 791 50 delay 0.86 1 min;
#X obj 806 76 bng 15 250 50 0 empty empty empty 17 7 0 10 -262144 -1
-1;
#X obj 171 343 freeverb~;
#X obj 250 343 r wet;
#X obj 297 343 r dry;
#X obj 806 96 s startv;
#X msg 519 283 0.8;
#X msg 897 249 0 3000;
#X msg 832 249 0 3000;
#X msg 764 248 0 3000;
#X connect 0 0 54 0;
#X connect 0 0 54 1;
#X connect 1 0 37 0;
#X connect 2 0 3 0;
#X connect 3 0 1 0;
#X connect 4 0 6 1;
#X connect 5 0 4 0;
#X connect 5 0 18 0;
#X connect 5 0 19 0;
#X connect 5 0 26 0;
#X connect 6 0 2 0;
#X connect 7 0 8 0;
#X connect 9 0 7 0;
#X connect 10 0 11 0;
#X connect 11 0 0 0;
#X connect 12 0 10 0;
#X connect 13 0 14 0;
#X connect 14 0 16 0;
#X connect 15 0 13 0;
#X connect 16 0 48 0;
#X connect 18 0 12 1;
#X connect 19 0 15 1;
#X connect 20 0 5 0;
#X connect 21 0 20 0;
#X connect 22 0 6 0;
#X connect 22 0 12 0;
#X connect 22 0 15 0;
#X connect 23 0 32 0;
#X connect 24 0 30 0;
#X connect 25 0 31 0;
#X connect 27 0 61 0;
#X connect 28 0 60 0;
#X connect 29 0 59 0;
#X connect 30 0 28 0;
#X connect 31 0 29 0;
#X connect 32 0 27 0;
#X connect 33 0 34 0;
#X connect 34 0 35 0;
#X connect 35 0 36 0;
#X connect 36 0 37 1;
#X connect 37 0 17 0;
#X connect 38 0 39 0;
#X connect 39 0 40 0;
#X connect 40 0 41 0;
#X connect 41 0 42 1;
#X connect 42 0 17 0;
#X connect 43 0 38 0;
#X connect 44 0 45 0;
#X connect 45 0 46 0;
#X connect 46 0 47 0;
#X connect 47 0 48 1;
#X connect 48 0 17 0;
#X connect 49 0 44 0;
#X connect 50 0 58 0;
#X connect 50 0 43 0;
#X connect 50 0 49 0;
#X connect 51 0 52 0;
#X connect 52 0 53 0;
#X connect 53 0 57 0;
#X connect 54 0 42 0;
#X connect 54 1 42 0;
#X connect 55 0 54 0;
#X connect 56 0 54 0;
#X connect 58 0 33 0;
#X connect 59 0 47 0;
#X connect 60 0 41 0;
#X connect 61 0 36 0;
#X restore 29 193 pd drums;
#N canvas 282 306 1043 736 TB303 0;
#X obj 78 146 metro;
#X obj 77 189 f;
#X obj 127 189 + 1;
#X obj 77 229 mod 16;
#X obj 77 264 hradio 15 1 0 16 empty empty empty 0 -8 0 10 -257985
-1 -1 4;
#X obj 77 284 select 0 1 2 3 4 5 6 7 8 9 10 11 12 13 14 15;
#X obj 77 467 f;
#X obj 95 323 vsl 15 128 0 127 0 0 empty empty empty 0 -9 0 10 -262144
-1 -1 3800 1;
#X obj 113 467 f;
#X obj 131 324 vsl 15 128 0 127 0 0 empty empty empty 0 -9 0 10 -262144
-1 -1 2400 1;
#X obj 148 467 f;
#X obj 166 324 vsl 15 128 0 127 0 0 empty empty empty 0 -9 0 10 -262144
-1 -1 4600 1;
#X obj 184 467 f;
#X obj 202 324 vsl 15 128 0 127 0 0 empty empty empty 0 -9 0 10 -262144
-1 -1 2400 1;
#X obj 215 466 f;
#X obj 233 323 vsl 15 128 0 127 0 0 empty empty empty 0 -9 0 10 -262144
-1 -1 6400 1;
#X obj 251 466 f;
#X obj 269 323 vsl 15 128 0 127 0 0 empty empty empty 0 -9 0 10 -262144
-1 -1 1200 1;
#X obj 286 466 f;
#X obj 304 323 vsl 15 128 0 127 0 0 empty empty empty 0 -9 0 10 -262144
-1 -1 3600 1;
#X obj 322 466 f;
#X obj 340 323 vsl 15 128 0 127 0 0 empty empty empty 0 -9 0 10 -262144
-1 -1 2800 1;
#X obj 359 466 f;
#X obj 377 323 vsl 15 128 0 127 0 0 empty empty empty 0 -9 0 10 -262144
-1 -1 2400 1;
#X obj 395 466 f;
#X obj 413 323 vsl 15 128 0 127 0 0 empty empty empty 0 -9 0 10 -262144
-1 -1 3800 1;
#X obj 430 466 f;
#X obj 448 323 vsl 15 128 0 127 0 0 empty empty empty 0 -9 0 10 -262144
-1 -1 4800 1;
#X obj 466 466 f;
#X obj 484 323 vsl 15 128 0 127 0 0 empty empty empty 0 -9 0 10 -262144
-1 -1 5600 1;
#X obj 497 465 f;
#X obj 515 322 vsl 15 128 0 127 0 0 empty empty empty 0 -9 0 10 -262144
-1 -1 3600 1;
#X obj 533 465 f;
#X obj 551 322 vsl 15 128 0 127 0 0 empty empty empty 0 -9 0 10 -262144
-1 -1 2200 1;
#X obj 568 465 f;
#X obj 586 322 vsl 15 128 0 127 0 0 empty empty empty 0 -9 0 10 -262144
-1 -1 3600 1;
#X obj 604 465 f;
#X obj 622 322 vsl 15 128 0 127 0 0 empty empty empty 0 -9 0 10 -262144
-1 -1 5400 1;
#X obj 77 504 mtof;
#X obj 78 550 tb303~;
#X obj 78 686 throw~ tb303;
#X obj 145 567 * 1.5;
#X obj 78 599 lop~ 250 5;
#N canvas 616 476 650 397 bpm 0;
#X obj 56 37 inlet;
#X obj 68 144 t b f;
#X msg 74 177 60000;
#X obj 82 207 /;
#X obj 83 247 int;
#X floatatom 82 281 5 0 0 0 - - -, f 5;
#X obj 194 309 *;
#X obj 68 109 int;
#X obj 33 92 bng 15 250 50 0 empty empty empty 17 7 0 10 -262144 -1
-1;
#X obj 197 349 outlet;
#X obj 153 163 t b f;
#X obj 339 157 loadbang;
#X msg 244 233 0.25;
#X connect 0 0 7 1;
#X connect 0 0 8 0;
#X connect 1 0 2 0;
#X connect 1 1 3 1;
#X connect 2 0 3 0;
#X connect 3 0 4 0;
#X connect 4 0 5 0;
#X connect 5 0 6 0;
#X connect 6 0 9 0;
#X connect 7 0 1 0;
#X connect 8 0 7 0;
#X connect 10 0 7 0;
#X connect 10 1 12 0;
#X connect 11 0 10 0;
#X connect 12 0 6 1;
#X restore 110 115 pd bpm;
#X obj 196 44 r debut;
#X obj 110 82 r bpm303;
#X obj 341 25 r fin;
#X msg 341 120 stop;
#X obj 483 173 loadbang;
#X msg 173 229 24;
#X msg 241 229 24;
#X msg 307 229 12;
#X msg 340 229 36;
#X msg 406 229 24;
#X msg 542 229 36;
#X obj 356 56 bng 15 250 50 0 empty empty empty 17 7 0 10 -262144 -1
-1;
#X obj 181 153 bng 15 250 50 0 empty empty empty 17 7 0 10 -262144
-1 -1;
#X obj 350 148 s stop1;
#X obj 185 181 s start1;
#X obj 195 114 delay 0.28 1 min;
#X obj 342 90 delay 1.48 1 min;
#X msg 140 229 38;
#X msg 206 229 46;
#X msg 274 229 64;
#X msg 373 229 28;
#X msg 441 229 38;
#X msg 508 229 56;
#X msg 474 229 48;
#X msg 578 229 22;
#X msg 610 229 36;
#X msg 643 229 54;
#X obj 53 642 freeverb~;
#X obj 162 625 r wet2;
#X obj 162 649 r dry2;
#X obj 498 58 bng 15 250 50 0 empty empty empty 17 7 0 10 -262144 -1
-1;
#X obj 483 27 r debut;
#X obj 484 92 delay 0.78 1 min;
#X obj 495 122 s startv2;
#X connect 0 0 1 0;
#X connect 1 0 2 0;
#X connect 1 0 3 0;
#X connect 2 0 1 1;
#X connect 3 0 4 0;
#X connect 4 0 5 0;
#X connect 5 0 6 0;
#X connect 5 1 8 0;
#X connect 5 2 10 0;
#X connect 5 3 12 0;
#X connect 5 4 14 0;
#X connect 5 5 16 0;
#X connect 5 6 18 0;
#X connect 5 7 20 0;
#X connect 5 8 22 0;
#X connect 5 9 24 0;
#X connect 5 10 26 0;
#X connect 5 11 28 0;
#X connect 5 12 30 0;
#X connect 5 13 32 0;
#X connect 5 14 34 0;
#X connect 5 15 36 0;
#X connect 6 0 38 0;
#X connect 7 0 6 1;
#X connect 8 0 38 0;
#X connect 9 0 8 1;
#X connect 10 0 38 0;
#X connect 11 0 10 1;
#X connect 12 0 38 0;
#X connect 13 0 12 1;
#X connect 14 0 38 0;
#X connect 15 0 14 1;
#X connect 16 0 38 0;
#X connect 17 0 16 1;
#X connect 18 0 38 0;
#X connect 19 0 18 1;
#X connect 20 0 38 0;
#X connect 21 0 20 1;
#X connect 22 0 38 0;
#X connect 23 0 22 1;
#X connect 24 0 38 0;
#X connect 25 0 24 1;
#X connect 26 0 38 0;
#X connect 27 0 26 1;
#X connect 28 0 38 0;
#X connect 29 0 28 1;
#X connect 30 0 38 0;
#X connect 31 0 30 1;
#X connect 32 0 38 0;
#X connect 33 0 32 1;
#X connect 34 0 38 0;
#X connect 35 0 34 1;
#X connect 36 0 38 0;
#X connect 37 0 36 1;
#X connect 38 0 39 0;
#X connect 38 0 41 0;
#X connect 39 0 42 0;
#X connect 41 0 42 1;
#X connect 42 0 71 0;
#X connect 42 0 71 1;
#X connect 43 0 0 1;
#X connect 44 0 59 0;
#X connect 45 0 43 0;
#X connect 46 0 55 0;
#X connect 47 0 0 0;
#X connect 47 0 57 0;
#X connect 48 0 61 0;
#X connect 48 0 49 0;
#X connect 48 0 62 0;
#X connect 48 0 50 0;
#X connect 48 0 63 0;
#X connect 48 0 51 0;
#X connect 48 0 52 0;
#X connect 48 0 64 0;
#X connect 48 0 53 0;
#X connect 48 0 65 0;
#X connect 48 0 67 0;
#X connect 48 0 66 0;
#X connect 48 0 54 0;
#X connect 48 0 68 0;
#X connect 48 0 69 0;
#X connect 48 0 70 0;
#X connect 49 0 9 0;
#X connect 50 0 13 0;
#X connect 51 0 17 0;
#X connect 52 0 19 0;
#X connect 53 0 23 0;
#X connect 54 0 31 0;
#X connect 55 0 60 0;
#X connect 56 0 0 0;
#X connect 56 0 58 0;
#X connect 59 0 56 0;
#X connect 60 0 47 0;
#X connect 61 0 7 0;
#X connect 62 0 11 0;
#X connect 63 0 15 0;
#X connect 64 0 21 0;
#X connect 65 0 25 0;
#X connect 66 0 29 0;
#X connect 67 0 27 0;
#X connect 68 0 33 0;
#X connect 69 0 35 0;
#X connect 70 0 37 0;
#X connect 71 0 40 0;
#X connect 71 1 40 0;
#X connect 72 0 71 0;
#X connect 73 0 71 0;
#X connect 74 0 76 0;
#X connect 75 0 74 0;
#X connect 76 0 77 0;
#X restore 29 224 pd TB303;
#N canvas 468 298 789 639 oscmod 0;
#X obj 137 351 mtof;
#X obj 136 308 f;
#X obj 173 310 f;
#X obj 135 233 hradio 15 1 0 2 empty empty empty 0 -8 0 10 -260097
-1 -1 0;
#X obj 134 183 f;
#X obj 176 182 + 1;
#X obj 133 160 metro;
#X obj 164 86 r bpm303;
#N canvas 568 411 467 410 bpm 0;
#X obj 56 37 inlet;
#X obj 68 144 t b f;
#X msg 74 177 60000;
#X obj 82 207 /;
#X obj 83 247 int;
#X floatatom 82 281 5 0 0 0 - - -, f 5;
#X obj 194 309 *;
#X obj 68 109 int;
#X obj 33 92 bng 15 250 50 0 empty empty empty 17 7 0 10 -262144 -1
-1;
#X obj 197 349 outlet;
#X obj 153 163 t b f;
#X obj 339 157 loadbang;
#X msg 244 233 8;
#X connect 0 0 7 1;
#X connect 0 0 8 0;
#X connect 1 0 2 0;
#X connect 1 1 3 1;
#X connect 2 0 3 0;
#X connect 3 0 4 0;
#X connect 4 0 5 0;
#X connect 5 0 6 0;
#X connect 6 0 9 0;
#X connect 7 0 1 0;
#X connect 8 0 7 0;
#X connect 10 0 7 0;
#X connect 10 1 12 0;
#X connect 11 0 10 0;
#X connect 12 0 6 1;
#X restore 164 115 pd bpm;
#X obj 254 79 r debut;
#X obj 397 85 r fin;
#X msg 397 141 stop;
#X obj 225 197 vsl 15 128 0 127 0 0 empty empty empty 0 -9 0 10 -262144
-1 -1 3000 1;
#X obj 248 197 vsl 15 128 0 127 0 0 empty empty empty 0 -9 0 10 -262144
-1 -1 2400 1;
#X obj 376 251 loadbang;
#X floatatom 137 381 5 0 0 0 - - -, f 5;
#X floatatom 212 381 5 0 0 0 - - -, f 5;
#X floatatom 288 381 5 0 0 0 - - -, f 5;
#N canvas 377 487 331 250 modulationFrequence 0;
#X obj 101 37 *~;
#X obj 102 69 osc~;
#X obj 194 69 *~;
#X obj 102 99 *~;
#X obj 7 117 +~;
#X obj 7 139 osc~;
#X obj 7 161 outlet~;
#X text 34 71 modulante;
#X text 43 140 porteuse;
#X obj 6 7 inlet~ porteuse;
#X obj 119 7 inlet~ ratio;
#X obj 211 7 inlet~ index;
#X connect 0 0 1 0;
#X connect 0 0 2 0;
#X connect 1 0 3 0;
#X connect 2 0 3 1;
#X connect 3 0 4 1;
#X connect 4 0 5 0;
#X connect 5 0 6 0;
#X connect 9 0 0 0;
#X connect 9 0 4 0;
#X connect 10 0 0 1;
#X connect 11 0 2 1;
#X restore 138 421 pd modulationFrequence;
#X obj 137 400 sig~ 150;
#X obj 212 400 sig~ 0.501;
#X obj 288 400 sig~ 8;
#X obj 137 527 throw~ fm;
#X obj 398 177 s stop2;
#X obj 298 179 s start2;
#X obj 254 118 delay 0.45 1 min;
#X msg 307 240 30;
#X msg 308 273 24;
#X obj 135 260 select 0 1;
#X obj 135 209 mod 2;
#X msg 212 356 3;
#X msg 289 357 2;
#X obj 397 114 delay 1.43 1 min;
#X obj 138 474 lop~;
#X obj 179 449 r lopctrl;
#X connect 0 0 15 0;
#X connect 1 0 0 0;
#X connect 2 0 0 0;
#X connect 3 0 28 0;
#X connect 4 0 5 0;
#X connect 4 0 29 0;
#X connect 5 0 4 1;
#X connect 6 0 4 0;
#X connect 7 0 8 0;
#X connect 8 0 6 1;
#X connect 9 0 25 0;
#X connect 10 0 32 0;
#X connect 11 0 6 0;
#X connect 11 0 23 0;
#X connect 12 0 1 1;
#X connect 13 0 2 1;
#X connect 14 0 26 0;
#X connect 14 0 27 0;
#X connect 14 0 30 0;
#X connect 14 0 31 0;
#X connect 15 0 19 0;
#X connect 16 0 20 0;
#X connect 17 0 21 0;
#X connect 18 0 33 0;
#X connect 19 0 18 0;
#X connect 20 0 18 1;
#X connect 21 0 18 2;
#X connect 25 0 6 0;
#X connect 25 0 24 0;
#X connect 26 0 12 0;
#X connect 27 0 13 0;
#X connect 28 0 1 0;
#X connect 28 1 2 0;
#X connect 29 0 3 0;
#X connect 30 0 16 0;
#X connect 31 0 17 0;
#X connect 32 0 11 0;
#X connect 33 0 22 0;
#X connect 34 0 33 1;
#X restore 29 256 pd oscmod;
#N canvas 301 268 820 662 mix 0;
#X obj 296 225 vsl 15 100 0 1 0 0 empty empty Gain 0 -9 0 10 -262144
-1 -1 5940 1;
#X floatatom 297 336 5 0 0 0 - - -, f 5;
#X msg 396 206 0;
#X msg 297 374 \$1 25;
#X obj 297 396 line~;
#X text 396 189 niveau de volume;
#X obj 93 395 *~;
#X obj 153 329 catch~ tb303;
#X obj 362 260 vsl 15 100 0 1 0 0 empty empty Gain 0 -9 0 10 -262144
-1 -1 0 1;
#X floatatom 364 387 5 0 0 0 - - -, f 5;
#X msg 364 425 \$1 25;
#X obj 364 447 line~;
#X obj 122 417 *~;
#X obj 132 301 catch~ drum;
#X obj 190 359 catch~ fm;
#X obj 154 439 *~;
#X obj 433 295 vsl 15 100 0 1 0 0 empty empty Gain 0 -9 0 10 -262144
-1 -1 0 1;
#X floatatom 433 428 5 0 0 0 - - -, f 5;
#X msg 433 466 \$1 25;
#X obj 433 488 line~;
#X obj 103 505 throw~ mix;
#X msg 441 207 0.6;
#X obj 529 126 r stop1;
#X obj 615 159 r stop2;
#X obj 508 103 r start1;
#X obj 593 137 r start2;
#X obj 412 139 loadbang;
#X msg 527 367 0 5000;
#X msg 613 391 0 5000;
#X msg 508 258 0.2 6000;
#X msg 594 286 0.3 4000;
#X connect 0 0 1 0;
#X connect 1 0 3 0;
#X connect 2 0 0 0;
#X connect 3 0 4 0;
#X connect 4 0 6 1;
#X connect 6 0 20 0;
#X connect 7 0 12 0;
#X connect 8 0 9 0;
#X connect 9 0 10 0;
#X connect 10 0 11 0;
#X connect 11 0 12 1;
#X connect 12 0 20 0;
#X connect 13 0 6 0;
#X connect 14 0 15 0;
#X connect 15 0 20 0;
#X connect 16 0 17 0;
#X connect 17 0 18 0;
#X connect 18 0 19 0;
#X connect 19 0 15 1;
#X connect 21 0 0 0;
#X connect 22 0 27 0;
#X connect 23 0 28 0;
#X connect 24 0 29 0;
#X connect 25 0 30 0;
#X connect 26 0 21 0;
#X connect 27 0 11 0;
#X connect 28 0 19 0;
#X connect 29 0 11 0;
#X connect 30 0 19 0;
#X restore 29 285 pd mix;
#X obj 41 548 catch~ mix;
#X obj 229 509 loadbang;
#X msg 229 535 400;
#X msg 388 534 0.5;
#X obj 31 80 t;
#X text 63 42 depart de la sequence;
#X text 131 164 geston des samples;
#X text 99 194 patch drums;
#X text 100 225 patch synthé a onde carée;
#X text 102 256 patch synthé FM;
#X text 85 287 aiguillage et mix;
#X text 420 534 resonance tb303;
#X text 260 536 cutoff tb303;
#X obj 386 499 s lopctrl;
#X obj 389 468 hsl 128 15 40 1000 0 0 empty empty empty -2 -8 0 10
-262144 -1 -1 7408 1;
#X msg 426 442 600;
#X msg 382 358 wet \$1;
#X msg 430 358 dry \$1;
#X obj 385 306 hsl 128 15 0 1 0 0 empty empty empty -2 -8 0 10 -262144
-1 -1 0 1;
#N canvas 1 80 450 300 inv 0;
#X obj 154 69 inlet;
#X obj 154 179 outlet;
#X msg 154 124 1;
#X obj 154 97 t b f;
#X obj 154 151 -;
#X connect 0 0 3 0;
#X connect 2 0 4 0;
#X connect 3 0 2 0;
#X connect 3 1 4 1;
#X connect 4 0 1 0;
#X restore 430 331 pd inv;
#X floatatom 488 356 5 0 0 0 - - -, f 5;
#X text 373 287 dry;
#X text 498 286 wet;
#X floatatom 389 332 5 0 0 0 - - -, f 5;
#X obj 385 383 s wet;
#X obj 432 383 s dry;
#X obj 398 269 r startv;
#X msg 382 194 wet \$1;
#X msg 430 194 dry \$1;
#X obj 385 142 hsl 128 15 0 1 0 0 empty empty empty -2 -8 0 10 -262144
-1 -1 0 1;
#N canvas 1 80 450 300 inv 0;
#X obj 154 69 inlet;
#X obj 154 179 outlet;
#X msg 154 124 1;
#X obj 154 97 t b f;
#X obj 154 151 -;
#X connect 0 0 3 0;
#X connect 2 0 4 0;
#X connect 3 0 2 0;
#X connect 3 1 4 1;
#X connect 4 0 1 0;
#X restore 430 167 pd inv;
#X floatatom 488 192 5 0 0 0 - - -, f 5;
#X text 373 123 dry;
#X text 498 122 wet;
#X floatatom 389 168 5 0 0 0 - - -, f 5;
#X obj 398 105 r startv2;
#X obj 385 219 s wet2;
#X obj 432 219 s dry2;
#X text 396 84 reverb tb303;
#X text 461 443 LOP oscmod;
#X msg 331 305 0;
#X msg 333 142 0;
#X text 395 251 reverb hat;
#X obj 541 305 line;
#X msg 543 277 set 0;
#X msg 519 255 1 5000;
#X obj 530 225 t b b;
#X obj 550 139 line;
#X msg 552 111 set 0;
#X obj 539 59 t b b;
#X msg 528 89 0.6 5000;
#X connect 3 0 4 0;
#X connect 4 0 2 0;
#X connect 5 0 6 0;
#X connect 6 0 7 0;
#X connect 11 0 22 0;
#X connect 18 0 0 0;
#X connect 18 0 0 1;
#X connect 19 0 20 0;
#X connect 19 0 21 0;
#X connect 19 0 33 0;
#X connect 19 0 58 0;
#X connect 19 0 59 0;
#X connect 20 0 3 0;
#X connect 21 0 5 0;
#X connect 22 0 12 0;
#X connect 22 1 13 0;
#X connect 32 0 31 0;
#X connect 33 0 32 0;
#X connect 34 0 42 0;
#X connect 35 0 43 0;
#X connect 36 0 34 0;
#X connect 36 0 37 0;
#X connect 36 0 41 0;
#X connect 37 0 35 0;
#X connect 37 0 38 0;
#X connect 44 0 64 0;
#X connect 45 0 54 0;
#X connect 46 0 55 0;
#X connect 47 0 45 0;
#X connect 47 0 48 0;
#X connect 47 0 52 0;
#X connect 48 0 46 0;
#X connect 48 0 49 0;
#X connect 53 0 67 0;
#X connect 58 0 36 0;
#X connect 59 0 47 0;
#X connect 61 0 36 0;
#X connect 62 0 61 0;
#X connect 63 0 61 0;
#X connect 64 0 63 0;
#X connect 64 1 62 0;
#X connect 65 0 47 0;
#X connect 66 0 65 0;
#X connect 67 0 68 0;
#X connect 67 1 66 0;
#X connect 68 0 65 0;
