#N canvas 258 58 796 570 16;
#X obj 152 176 osc~;
#X obj 151 215 *~ 100;
#X obj 151 251 clip~ -1 1;
#X obj 148 364 bob~;
#X obj 385 102 r tb303_cf;
#X msg 385 129 \$1 100;
#X obj 385 156 line~;
#X msg 513 161 \$1 100;
#X obj 513 188 line~;
#X obj 513 102 r tb303_res;
#X obj 513 129 clip 0 4;
#X obj 149 136 inlet;
#X obj 145 452 outlet~;
#X connect 0 0 1 0;
#X connect 1 0 2 0;
#X connect 2 0 3 0;
#X connect 3 0 12 0;
#X connect 4 0 5 0;
#X connect 5 0 6 0;
#X connect 6 0 3 1;
#X connect 7 0 8 0;
#X connect 8 0 3 2;
#X connect 9 0 10 0;
#X connect 10 0 7 0;
#X connect 11 0 0 0;
